HIERARCHY
ROOT Hips
{
	OFFSET 0.000000 83.214638 0.000000
	CHANNELS 6 Xposition Yposition Zposition Xrotation Yrotation Zrotation
	JOINT Pelvis
	{
		OFFSET 0.000000 0.000000 0.000000
		CHANNELS 3 Xrotation Yrotation Zrotation
		JOINT LeftUpLeg
		{
			OFFSET 8.479700 -4.795502 -0.379100
			CHANNELS 3 Xrotation Yrotation Zrotation
			JOINT LeftLeg
			{
				OFFSET 0.024144 -32.555107 0.112900
				CHANNELS 3 Xrotation Yrotation Zrotation
				JOINT LeftFoot
				{
					OFFSET -0.024144 -32.638630 -3.012600
					CHANNELS 3 Xrotation Yrotation Zrotation
					JOINT LeftToeBase
					{
						OFFSET 0.970200 -13.225400 11.864200
						CHANNELS 3 Xrotation Yrotation Zrotation
						End Site
						{
							OFFSET 0.000000 12.319262 0.000000
						}
					}
					JOINT LFootTongue
					{
						OFFSET 1.142400 -1.059800 6.665200
						CHANNELS 3 Xrotation Yrotation Zrotation
						End Site
						{
							OFFSET 0.000000 12.319262 0.000000
						}
					}
				}
				JOINT LeftPantLeg
				{
					OFFSET 0.918482 -16.533964 -2.284700
					CHANNELS 3 Xrotation Yrotation Zrotation
					End Site
					{
						OFFSET 0.350399 24.744368 0.000000
					}
				}
			}
		}
		JOINT RightUpLeg
		{
			OFFSET -8.479700 -4.795502 -0.379100
			CHANNELS 3 Xrotation Yrotation Zrotation
			JOINT RightLeg
			{
				OFFSET -0.023144 -32.555092 0.112900
				CHANNELS 3 Xrotation Yrotation Zrotation
				JOINT RightFoot
				{
					OFFSET 0.023144 -32.638641 -3.012700
					CHANNELS 3 Xrotation Yrotation Zrotation
					JOINT RightToeBase
					{
						OFFSET -0.970200 -13.225400 11.864200
						CHANNELS 3 Xrotation Yrotation Zrotation
						End Site
						{
							OFFSET 0.000000 12.319244 0.000000
						}
					}
					JOINT RFootTongue
					{
						OFFSET -1.142200 -1.059800 6.665200
						CHANNELS 3 Xrotation Yrotation Zrotation
						End Site
						{
							OFFSET 0.000000 12.319243 0.000000
						}
					}
				}
				JOINT RightPantLeg
				{
					OFFSET -0.919482 -16.533978 -2.284800
					CHANNELS 3 Xrotation Yrotation Zrotation
					End Site
					{
						OFFSET -0.350400 24.744419 0.000000
					}
				}
			}
		}
	}
	JOINT Spine
	{
		OFFSET 0.000000 7.722000 1.166200
		CHANNELS 3 Xrotation Yrotation Zrotation
		JOINT Spine1
		{
			OFFSET 0.000000 12.024101 0.248800
			CHANNELS 3 Xrotation Yrotation Zrotation
			JOINT Spine2
			{
				OFFSET 0.000000 11.502998 -0.491200
				CHANNELS 3 Xrotation Yrotation Zrotation
				JOINT Neck
				{
					OFFSET 0.000000 18.430702 -3.123100
					CHANNELS 3 Xrotation Yrotation Zrotation
					JOINT Head
					{
						OFFSET 0.000000 9.051102 1.034000
						CHANNELS 3 Xrotation Yrotation Zrotation
						JOINT HairB
						{
							OFFSET 0.208400 24.786102 24.822300
							CHANNELS 3 Xrotation Yrotation Zrotation
							End Site
							{
								OFFSET 0.000000 32.263779 0.000000
							}
						}
						JOINT HairA
						{
							OFFSET -7.081100 24.428299 23.196600
							CHANNELS 3 Xrotation Yrotation Zrotation
							End Site
							{
								OFFSET 0.000000 32.263779 0.000000
							}
						}
						JOINT Hat
						{
							OFFSET 16.728800 15.048294 -15.439601
							CHANNELS 3 Xrotation Yrotation Zrotation
							End Site
							{
								OFFSET 0.000000 32.263779 0.000000
							}
						}
					}
				}
				JOINT LeftShoulder
				{
					OFFSET 6.197800 13.665199 -4.064700
					CHANNELS 3 Xrotation Yrotation Zrotation
					JOINT LeftArm
					{
						OFFSET 7.778100 -0.187103 -1.709300
						CHANNELS 3 Xrotation Yrotation Zrotation
						JOINT LeftForeArm
						{
							OFFSET 22.049376 0.000000 0.000000
							CHANNELS 3 Xrotation Yrotation Zrotation
							JOINT LeftHand
							{
								OFFSET 23.009392 0.000000 0.000000
								CHANNELS 3 Xrotation Yrotation Zrotation
								JOINT LeftHandThumb1
								{
									OFFSET 3.507191 -2.063065 3.133727
									CHANNELS 3 Xrotation Yrotation Zrotation
									JOINT LeftHandThumb2
									{
										OFFSET 3.101337 -1.790558 1.790558
										CHANNELS 3 Xrotation Yrotation Zrotation
										JOINT LeftHandThumb3
										{
											OFFSET 3.058640 -1.765907 1.765906
											CHANNELS 3 Xrotation Yrotation Zrotation
											End Site
											{
												OFFSET -0.415260 3.926476 -0.049563
											}
										}
									}
								}
								JOINT LeftHandIndex1
								{
									OFFSET 11.334419 -0.901459 3.706815
									CHANNELS 3 Xrotation Yrotation Zrotation
									JOINT LeftHandIndex2
									{
										OFFSET 3.283112 0.000000 0.000000
										CHANNELS 3 Xrotation Yrotation Zrotation
										JOINT LeftHandIndex3
										{
											OFFSET 3.323853 0.000000 0.000000
											CHANNELS 3 Xrotation Yrotation Zrotation
											End Site
											{
												OFFSET -1.135597 3.097809 0.402452
											}
										}
									}
								}
								JOINT LeftHandMiddle1
								{
									OFFSET 11.335861 0.000000 0.000000
									CHANNELS 3 Xrotation Yrotation Zrotation
									JOINT LeftHandMiddle2
									{
										OFFSET 3.410492 0.000000 0.000000
										CHANNELS 3 Xrotation Yrotation Zrotation
										JOINT LeftHandMiddle3
										{
											OFFSET 3.312172 0.000000 0.000000
											CHANNELS 3 Xrotation Yrotation Zrotation
											End Site
											{
												OFFSET -1.150200 3.080154 0.400270
											}
										}
									}
								}
								JOINT LeftHandRing1
								{
									OFFSET 11.514786 -0.013176 -3.003090
									CHANNELS 3 Xrotation Yrotation Zrotation
									JOINT LeftHandRing2
									{
										OFFSET 3.053307 0.000000 0.000000
										CHANNELS 3 Xrotation Yrotation Zrotation
										JOINT LeftHandRing3
										{
											OFFSET 3.295807 0.000000 0.000000
											CHANNELS 3 Xrotation Yrotation Zrotation
											End Site
											{
												OFFSET -1.281006 3.013344 0.375733
											}
										}
									}
								}
								JOINT LeftHandPinky1
								{
									OFFSET 10.518692 -0.960396 -5.730441
									CHANNELS 3 Xrotation Yrotation Zrotation
									JOINT LeftHandPinky2
									{
										OFFSET 2.861649 0.000000 0.000000
										CHANNELS 3 Xrotation Yrotation Zrotation
										JOINT LeftHandPinky3
										{
											OFFSET 2.863380 0.000000 0.000000
											CHANNELS 3 Xrotation Yrotation Zrotation
											End Site
											{
												OFFSET -0.843597 2.711159 0.369971
											}
										}
									}
								}
							}
							JOINT LSleeve
							{
								OFFSET 6.676277 -0.344902 -1.011730
								CHANNELS 3 Xrotation Yrotation Zrotation
								End Site
								{
									OFFSET 0.000000 14.885353 0.000000
								}
							}
						}
					}
				}
				JOINT RightShoulder
				{
					OFFSET -6.197800 13.665199 -4.064700
					CHANNELS 3 Xrotation Yrotation Zrotation
					JOINT RightArm
					{
						OFFSET -7.778100 -0.187103 -1.709300
						CHANNELS 3 Xrotation Yrotation Zrotation
						JOINT RightForeArm
						{
							OFFSET -22.049376 0.000000 0.000000
							CHANNELS 3 Xrotation Yrotation Zrotation
							JOINT RightHand
							{
								OFFSET -23.009392 0.000000 0.000000
								CHANNELS 3 Xrotation Yrotation Zrotation
								JOINT RightHandThumb1
								{
									OFFSET -3.507191 -2.063065 3.133727
									CHANNELS 3 Xrotation Yrotation Zrotation
									JOINT RightHandThumb2
									{
										OFFSET -3.101337 -1.790558 1.790558
										CHANNELS 3 Xrotation Yrotation Zrotation
										JOINT RightHandThumb3
										{
											OFFSET -3.058640 -1.765907 1.765906
											CHANNELS 3 Xrotation Yrotation Zrotation
											End Site
											{
												OFFSET 0.415260 3.926476 -0.049563
											}
										}
									}
								}
								JOINT RightHandIndex1
								{
									OFFSET -11.334419 -0.901459 3.706815
									CHANNELS 3 Xrotation Yrotation Zrotation
									JOINT RightHandIndex2
									{
										OFFSET -3.283112 0.000000 0.000000
										CHANNELS 3 Xrotation Yrotation Zrotation
										JOINT RightHandIndex3
										{
											OFFSET -3.323853 0.000000 0.000000
											CHANNELS 3 Xrotation Yrotation Zrotation
											End Site
											{
												OFFSET 1.135597 3.097809 0.402452
											}
										}
									}
								}
								JOINT RightHandMiddle1
								{
									OFFSET -11.335861 0.000000 0.000000
									CHANNELS 3 Xrotation Yrotation Zrotation
									JOINT RightHandMiddle2
									{
										OFFSET -3.410492 0.000000 0.000000
										CHANNELS 3 Xrotation Yrotation Zrotation
										JOINT RightHandMiddle3
										{
											OFFSET -3.312172 0.000000 0.000000
											CHANNELS 3 Xrotation Yrotation Zrotation
											End Site
											{
												OFFSET 1.150200 3.080154 0.400270
											}
										}
									}
								}
								JOINT RightHandRing1
								{
									OFFSET -11.514786 -0.013176 -3.003090
									CHANNELS 3 Xrotation Yrotation Zrotation
									JOINT RightHandRing2
									{
										OFFSET -3.053307 0.000000 0.000000
										CHANNELS 3 Xrotation Yrotation Zrotation
										JOINT RightHandRing3
										{
											OFFSET -3.295807 0.000000 0.000000
											CHANNELS 3 Xrotation Yrotation Zrotation
											End Site
											{
												OFFSET 1.281006 3.013344 0.375733
											}
										}
									}
								}
								JOINT RightHandPinky1
								{
									OFFSET -10.518692 -0.960396 -5.730441
									CHANNELS 3 Xrotation Yrotation Zrotation
									JOINT RightHandPinky2
									{
										OFFSET -2.861649 0.000000 0.000000
										CHANNELS 3 Xrotation Yrotation Zrotation
										JOINT RightHandPinky3
										{
											OFFSET -2.863380 0.000000 0.000000
											CHANNELS 3 Xrotation Yrotation Zrotation
											End Site
											{
												OFFSET 0.843597 2.711159 0.369971
											}
										}
									}
								}
							}
							JOINT RSleeve
							{
								OFFSET -6.676277 -0.344902 -1.011730
								CHANNELS 3 Xrotation Yrotation Zrotation
								End Site
								{
									OFFSET 0.000000 14.885353 0.000000
								}
							}
						}
					}
				}
				JOINT Backpack
				{
					OFFSET 0.000000 -2.471497 36.677502
					CHANNELS 3 Xrotation Yrotation Zrotation
					End Site
					{
						OFFSET 0.000000 20.427315 0.000000
					}
				}
				JOINT Hood
				{
					OFFSET 0.000000 18.754097 -10.431000
					CHANNELS 3 Xrotation Yrotation Zrotation
					JOINT Hood1
					{
						OFFSET 0.000000 -5.011002 -7.685901
						CHANNELS 3 Xrotation Yrotation Zrotation
						End Site
						{
							OFFSET 0.000000 9.175140 0.000000
						}
					}
				}
				JOINT LHoodieString
				{
					OFFSET 5.250500 16.397697 3.089900
					CHANNELS 3 Xrotation Yrotation Zrotation
					JOINT LHoodieString1
					{
						OFFSET 0.257700 -6.364304 3.694600
						CHANNELS 3 Xrotation Yrotation Zrotation
						JOINT LHoodieString2
						{
							OFFSET 0.000000 -9.643799 2.679100
							CHANNELS 3 Xrotation Yrotation Zrotation
							End Site
							{
								OFFSET 0.000000 10.009018 0.000000
							}
						}
					}
				}
				JOINT RHoodieString
				{
					OFFSET -5.250500 16.397697 3.089900
					CHANNELS 3 Xrotation Yrotation Zrotation
					JOINT RHoodieString1
					{
						OFFSET -0.257700 -6.364304 3.694600
						CHANNELS 3 Xrotation Yrotation Zrotation
						JOINT RHoodieString2
						{
							OFFSET 0.000000 -9.643799 2.679100
							CHANNELS 3 Xrotation Yrotation Zrotation
							End Site
							{
								OFFSET 0.000000 10.009018 0.000000
							}
						}
					}
				}
			}
			JOINT LBackpack_Strap
			{
				OFFSET 15.223200 -7.719803 -6.610900
				CHANNELS 3 Xrotation Yrotation Zrotation
				End Site
				{
					OFFSET 0.000000 16.040596 0.000000
				}
			}
			JOINT RBackpack_Strap
			{
				OFFSET -15.223000 -7.719803 -6.610900
				CHANNELS 3 Xrotation Yrotation Zrotation
				End Site
				{
					OFFSET 0.000000 16.040596 0.000000
				}
			}
		}
	}
	JOINT BoyFacialAnim_Joint
	{
		OFFSET 1.000000 -82.208099 -1.550900
		CHANNELS 3 Xrotation Yrotation Zrotation
		End Site
		{
			OFFSET 0.000000 30.012791 0.000000
		}
	}
}
MOTION
Frames: 4
Frame Time: 0.033333
-0.115689 66.693542 0.687359 12.734203 -11.682798 -0.528058 -0.000000 0.000000 0.000000 -52.698564 4.932578 7.501065 110.186763 5.017321 -3.088175 -17.238161 8.514510 7.832714 0.000002 0.000001 -0.000000 0.000002 0.000001 -0.000000 -0.000003 -0.000000 -0.000000 -34.587859 0.323168 12.573655 70.357970 -0.876001 -3.294210 -49.598163 -17.407748 -5.864207 -0.000000 0.000000 0.000000 -0.000000 0.000000 0.000000 -0.000001 -0.000000 0.000000 9.859278 -4.056512 2.864107 3.908213 -1.274535 -0.342420 3.894905 -1.299761 -0.356491 1.608064 4.310547 0.774590 -9.375634 18.065791 14.676994 0.000001 0.000001 0.000002 0.000001 0.000001 0.000002 0.000001 0.000001 0.000002 2.230609 -10.381990 16.919934 -92.620842 -25.432095 -63.518075 0.000004 -29.796823 0.000023 -133.216160 11.057420 13.374365 1.567992 0.456382 2.719342 19.473192 -1.474930 7.636925 -0.000001 0.000000 -0.000000 -1.882812 2.129435 -39.817018 2.947093 5.081733 -60.200536 -0.000001 -0.000001 -0.000000 0.405915 5.507051 -52.453151 3.387145 5.308613 -65.057470 -0.000001 0.000000 0.000002 -0.074371 5.736792 -61.061420 4.422093 5.674481 -75.840378 -0.000000 -0.000001 -0.000002 2.216803 7.072444 -64.435445 4.422625 5.674633 -75.845781 -0.000000 -0.000001 0.000005 0.000000 0.000000 0.000000 0.738340 4.977037 -2.115367 -61.950041 31.750343 87.298601 0.000105 106.762537 -0.000111 -28.277332 -32.454105 -30.318284 8.377144 -4.904124 11.021996 21.620202 -18.183902 -18.379209 0.000003 0.000001 0.000002 -1.101391 1.407145 15.159492 1.422349 -3.352195 45.974113 -0.000000 -0.000001 0.000002 3.413071 -7.186268 51.650235 6.296825 -4.359601 110.634680 0.000001 0.000001 -0.000000 -3.349026 -2.600411 57.010558 5.440848 -4.590898 99.698147 0.000001 0.000000 0.000002 -3.996444 -3.303926 64.593837 4.058860 -4.618681 82.610503 0.000000 -0.000000 0.000004 0.000000 -0.000006 0.000001 -0.000000 0.000000 0.000001 -0.000000 0.000000 0.000001 -0.000000 0.000000 0.000001 -0.000000 0.000000 0.000001 -0.000000 0.000000 -0.000000 -0.000000 -0.000000 -0.000000 -0.000000 0.000000 0.000001 -0.000000 0.000000 -0.000000 -0.000000 -0.000000 -0.000000 -0.000000 -0.000000 -0.000000 -0.000000 -0.000000 -0.000000 -0.000000 0.000000 0.000000 
0.189280 67.405083 11.617558 11.789331 -6.963913 -1.004599 0.000000 0.000000 -0.000000 -69.154327 -0.693691 8.059748 106.229406 4.279022 -2.742166 -17.265502 8.736623 0.397693 -0.000003 0.000000 -0.000001 -0.000003 0.000000 -0.000001 0.000000 0.000000 -0.000001 -19.790272 -2.693620 9.673704 62.972766 -4.456768 -2.871863 -49.083676 -16.641418 -5.763325 0.000001 -0.000001 0.000001 0.000001 -0.000001 0.000001 0.000000 -0.000000 -0.000000 9.760358 -4.462092 1.974564 3.824485 -0.356566 -0.900442 3.760650 -0.497794 -1.045965 2.766612 3.918282 0.865646 -9.763072 16.080313 17.460083 0.000001 -0.000002 -0.000002 0.000001 -0.000002 -0.000002 0.000001 -0.000002 -0.000002 2.222987 -10.600838 16.617688 -98.303463 -31.651640 -69.495297 0.000016 -16.200944 0.000020 -135.366413 16.685312 7.751384 1.567992 0.456379 2.719342 19.473192 -1.474918 7.636911 -0.000000 -0.000001 -0.000000 -1.882822 2.129423 -39.817025 2.947096 5.081738 -60.200516 -0.000000 0.000000 -0.000003 0.405914 5.507045 -52.453151 3.387147 5.308615 -65.057456 0.000006 0.000000 0.000002 -0.074381 5.736781 -61.061427 4.422089 5.674488 -75.840392 -0.000005 0.000001 -0.000002 2.216810 7.072451 -64.435438 4.422625 5.674624 -75.845761 -0.000003 -0.000002 0.000001 -0.000003 0.000001 0.000001 0.741903 4.676824 -1.609987 -58.114535 30.782273 86.823254 0.000205 107.342092 -0.000198 -27.578043 -32.706248 -33.071253 8.377142 -4.904124 11.021997 21.620199 -18.183902 -18.379214 -0.000003 0.000000 0.000001 -1.101393 1.407146 15.159492 1.422350 -3.352194 45.974109 0.000000 -0.000000 0.000002 3.413071 -7.186270 51.650235 6.296824 -4.359600 110.634680 0.000001 0.000001 -0.000004 -3.349027 -2.600412 57.010554 5.440849 -4.590898 99.698140 -0.000002 0.000001 0.000004 -3.996444 -3.303926 64.593843 4.058861 -4.618681 82.610503 -0.000001 -0.000001 -0.000003 -0.000001 -0.000005 0.000001 -0.000001 0.000000 -0.000001 -0.000001 0.000000 -0.000001 -0.000001 0.000000 -0.000001 -0.000001 0.000000 -0.000001 -0.000001 0.000000 -0.000000 -0.000001 0.000000 -0.000000 -0.000001 0.000000 -0.000001 -0.000001 0.000000 -0.000000 -0.000001 0.000000 -0.000000 0.000002 -0.000000 0.000000 0.000002 -0.000000 0.000000 0.000000 0.000000 -0.000000 
0.515931 68.782967 22.150087 11.594273 -4.116421 -0.943950 0.000001 -0.000000 -0.000000 -76.977994 -1.156054 8.636364 88.768472 5.358344 -2.690477 -14.712410 9.993961 -6.621186 -0.000000 0.000002 -0.000001 -0.000000 0.000002 -0.000000 0.000001 0.000001 0.000000 -14.332197 -3.685655 6.265484 62.085422 -4.697089 -2.921928 -28.095256 -19.770271 3.804269 -0.000000 -0.000000 0.000002 -0.000000 -0.000000 0.000002 0.000001 0.000000 -0.000000 9.374547 -4.926993 1.329980 3.567234 -0.322887 -1.120990 3.477391 -0.514312 -1.246116 3.968900 4.087578 0.524915 -9.822725 15.442496 18.830838 0.000000 0.000001 0.000002 0.000000 0.000001 0.000002 0.000000 0.000001 0.000002 2.030937 -9.992533 16.038544 -98.073914 -35.425845 -71.481591 0.000005 -12.790765 0.000001 -137.644663 18.517027 6.087124 1.567993 0.456380 2.719342 19.473182 -1.474893 7.636912 -0.000000 0.000000 -0.000000 -1.882820 2.129418 -39.817015 2.947088 5.081743 -60.200509 -0.000003 -0.000003 -0.000002 0.405919 5.507044 -52.453169 3.387150 5.308626 -65.057456 0.000006 0.000002 0.000002 -0.074384 5.736774 -61.061427 4.422082 5.674476 -75.840392 0.000003 -0.000000 0.000003 2.216818 7.072470 -64.435431 4.422635 5.674620 -75.845788 -0.000000 0.000000 -0.000000 -0.000000 0.000001 0.000000 0.743497 4.609815 -1.049123 -55.819253 31.108681 86.968587 0.000202 107.224298 -0.000199 -27.596136 -33.043735 -34.090652 8.377142 -4.904124 11.021995 21.620199 -18.183902 -18.379213 -0.000004 0.000000 0.000002 -1.101393 1.407145 15.159490 1.422350 -3.352196 45.974113 -0.000001 -0.000001 0.000002 3.413070 -7.186270 51.650232 6.296826 -4.359600 110.634680 0.000001 0.000001 -0.000002 -3.349027 -2.600411 57.010551 5.440850 -4.590899 99.698140 0.000000 0.000001 0.000000 -3.996443 -3.303927 64.593843 4.058860 -4.618684 82.610496 -0.000000 -0.000001 0.000002 0.000000 -0.000000 -0.000000 -0.000000 -0.000000 -0.000000 -0.000000 -0.000000 -0.000000 -0.000000 -0.000000 -0.000000 -0.000000 -0.000000 -0.000000 -0.000000 -0.000000 -0.000000 -0.000000 0.000001 -0.000000 -0.000000 -0.000000 -0.000000 -0.000000 -0.000000 -0.000000 -0.000000 0.000001 -0.000000 -0.000002 0.000000 -0.000000 -0.000002 0.000000 -0.000000 0.000001 -0.000000 -0.000000 
1.091182 69.341934 32.363216 11.539161 -3.427651 -1.097607 0.000001 -0.000000 0.000000 -77.420345 0.479078 9.126749 67.175901 8.305210 -3.048340 -11.019787 9.979693 -9.259037 0.000001 -0.000001 0.000000 0.000001 -0.000001 -0.000000 0.000000 -0.000001 0.000000 -15.594464 -2.881498 4.286786 63.938712 -2.882512 -3.095517 2.224766 -18.984743 9.690497 0.000003 0.000002 -0.000000 0.000003 0.000002 -0.000000 -0.000002 -0.000000 0.000000 9.007648 -5.599464 0.932974 3.318849 -1.116870 -1.039461 3.224108 -1.301239 -1.033024 4.762028 4.766983 -0.048520 -9.806228 16.223595 18.877461 0.000002 0.000001 0.000001 0.000002 0.000001 0.000001 0.000002 0.000001 0.000001 1.827409 -9.053751 15.490388 -92.022736 -36.830695 -68.292630 0.000002 -18.578710 0.000007 -139.347443 16.138340 7.597243 1.567991 0.456385 2.719341 19.473190 -1.474920 7.636928 0.000002 -0.000001 0.000002 -1.882815 2.129432 -39.817001 2.947082 5.081738 -60.200522 0.000003 0.000001 -0.000003 0.405917 5.507050 -52.453172 3.387129 5.308612 -65.057477 0.000002 -0.000000 -0.000003 -0.074365 5.736807 -61.061420 4.422086 5.674475 -75.840385 0.000001 -0.000000 -0.000002 2.216814 7.072475 -64.435431 4.422634 5.674621 -75.845788 -0.000002 0.000001 -0.000004 0.000001 0.000000 -0.000001 0.739947 4.660119 -0.722151 -55.230440 32.223098 87.399572 0.000041 106.799276 -0.000059 -28.523877 -33.134699 -32.990589 8.377142 -4.904124 11.021992 21.620201 -18.183903 -18.379216 -0.000006 -0.000000 0.000001 -1.101391 1.407145 15.159490 1.422348 -3.352196 45.974109 -0.000001 -0.000000 0.000002 3.413071 -7.186268 51.650239 6.296827 -4.359601 110.634687 0.000001 0.000001 -0.000002 -3.349027 -2.600411 57.010558 5.440849 -4.590899 99.698147 -0.000000 -0.000000 0.000007 -3.996444 -3.303925 64.593843 4.058861 -4.618682 82.610510 0.000000 -0.000001 0.000000 -0.000001 0.000000 -0.000001 -0.000001 -0.000001 0.000000 -0.000001 -0.000001 0.000000 -0.000001 -0.000001 0.000000 -0.000001 -0.000001 0.000000 -0.000001 -0.000001 0.000000 -0.000002 -0.000001 0.000000 -0.000001 -0.000001 0.000000 -0.000001 -0.000001 0.000000 -0.000002 -0.000001 0.000000 0.000001 -0.000001 0.000000 0.000001 -0.000001 0.000000 0.000001 -0.000000 0.000000 
